ffmpeg started on 2025-05-12 at 14:28:07
Report written to "D:\Convert\FFMetrics\reports\ssim_report-6.txt"
Log level: 32
Command line:
ffmpeg -hide_banner -nostdin -i "G:\\\xc0\xed\xe8\xec\xe5\\\xce\xed\xe3\xee\xe8\xed\xe3\xe8\\!_35_\xcb\xe5\xf2\xee_2024\\DreamCast\\\xc2\xe8\xf2\xf3\xe1\xe5\xf0 - \xdf \xf1\xf2\xe0\xeb\xe0 \xef\xee\xef\xf3\xeb\xff\xf0\xed\xee\xe9 \xef\xee\xf1\xeb\xe5 \xf2\xee\xe3\xee, \xea\xe0\xea \xe7\xe0\xe1\xfb\xeb\xe0 \xe2\xfb\xea\xeb\xfe\xf7\xe8\xf2\xfc \xf1\xf2\xf0\xe8\xec\\[DC] Vden - 11_Telegram_HEVC.mkv" -i "G:\\\xc0\xed\xe8\xec\xe5\\\xce\xed\xe3\xee\xe8\xed\xe3\xe8\\!_35_\xcb\xe5\xf2\xee_2024\\DreamCast\\\xc2\xe8\xf2\xf3\xe1\xe5\xf0 - \xdf \xf1\xf2\xe0\xeb\xe0 \xef\xee\xef\xf3\xeb\xff\xf0\xed\xee\xe9 \xef\xee\xf1\xeb\xe5 \xf2\xee\xe3\xee, \xea\xe0\xea \xe7\xe0\xe1\xfb\xeb\xe0 \xe2\xfb\xea\xeb\xfe\xf7\xe8\xf2\xfc \xf1\xf2\xf0\xe8\xec\\[DC] Vden - 11_Telegram.mp4" -lavfi "[0:v]settb=AVTB,setpts=PTS-STARTPTS,format=pix_fmts=yuv420p10,fps=24000/1001,scale=1920:1080:flags=bicubic[main];[1:v]settb=AVTB,setpts=PTS-STARTPTS,format=pix_fmts=yuv420p,fps=24000/1001,scale=1920:1080:flags=bicubic[ref];[main][ref]ssim=eof_action=endall:stats_file='D\\:/Convert/FFMetrics/logs/ssim_logfile-6.txt'" -f null -
Input #0, matroska,webm, from 'G:\Аниме\Онгоинги\!_35_Лето_2024\DreamCast\Витубер - Я стала популярной после того, как забыла выключить стрим\[DC] Vden - 11_Telegram_HEVC.mkv':
  Metadata:
    COMPATIBLE_BRANDS: isomiso2avc1mp41
    MAJOR_BRAND     : isom
    MINOR_VERSION   : 512
    ENCODER         : Lavf61.7.100
  Duration: 00:23:46.73, start: -0.021000, bitrate: 1226 kb/s
  Stream #0:0: Video: hevc (Main 10), yuv420p10le(tv, bt709, progressive), 1920x1080 [SAR 1:1 DAR 16:9], 23.98 fps, 23.98 tbr, 1k tbn (default)
      Metadata:
        HANDLER_NAME    : VideoHandler
        VENDOR_ID       : [0][0][0][0]
        ENCODER         : Lavc61.19.100 libx265
        BPS             : 1030144
        DURATION        : 00:23:46.549708333
        NUMBER_OF_FRAMES: 34203
        NUMBER_OF_BYTES : 183693936
        _STATISTICS_WRITING_APP: mkvpropedit v66.0.0 ('Josie') 64-bit
        _STATISTICS_WRITING_DATE_UTC: 2025-05-06 18:58:29
        _STATISTICS_TAGS: BPS DURATION NUMBER_OF_FRAMES NUMBER_OF_BYTES
  Stream #0:1: Audio: aac (LC), 48000 Hz, stereo, fltp (default)
      Metadata:
        HANDLER_NAME    : SoundHandler
        VENDOR_ID       : [0][0][0][0]
        ENCODER         : Lavc61.19.100 aac
        BPS             : 192527
        DURATION        : 00:23:46.730000000
        NUMBER_OF_FRAMES: 66879
        NUMBER_OF_BYTES : 34335684
        _STATISTICS_WRITING_APP: mkvpropedit v66.0.0 ('Josie') 64-bit
        _STATISTICS_WRITING_DATE_UTC: 2025-05-06 18:58:29
        _STATISTICS_TAGS: BPS DURATION NUMBER_OF_FRAMES NUMBER_OF_BYTES
Input #1, mov,mp4,m4a,3gp,3g2,mj2, from 'G:\Аниме\Онгоинги\!_35_Лето_2024\DreamCast\Витубер - Я стала популярной после того, как забыла выключить стрим\[DC] Vden - 11_Telegram.mp4':
  Metadata:
    major_brand     : isom
    minor_version   : 512
    compatible_brands: isomiso2avc1mp41
    encoder         : Lavf61.1.100
  Duration: 00:23:46.68, start: 0.000000, bitrate: 3756 kb/s
  Stream #1:0[0x1](und): Video: h264 (High) (avc1 / 0x31637661), yuv420p(tv, bt709, progressive), 1920x1080 [SAR 1:1 DAR 16:9], 3609 kb/s, 23.98 fps, 23.98 tbr, 24k tbn (default)
      Metadata:
        handler_name    : VideoHandler
        vendor_id       : [0][0][0][0]
        encoder         : Lavc61.3.100 h264_qsv
  Stream #1:1[0x2](und): Audio: aac (HE-AACv2) (mp4a / 0x6134706D), 48000 Hz, stereo, fltp, 144 kb/s (default)
      Metadata:
        handler_name    : SoundHandler
        vendor_id       : [0][0][0][0]
Stream mapping:
  Stream #0:0 (hevc) -> settb:default
  Stream #1:0 (h264) -> settb:default
  ssim:default -> Stream #0:0 (wrapped_avframe)
  Stream #0:1 -> #0:1 (aac (native) -> pcm_s16le (native))
Output #0, null, to 'pipe:':
  Metadata:
    COMPATIBLE_BRANDS: isomiso2avc1mp41
    MAJOR_BRAND     : isom
    MINOR_VERSION   : 512
    encoder         : Lavf61.7.100
  Stream #0:0: Video: wrapped_avframe, yuv420p10le(tv, bt709, progressive), 1920x1080 [SAR 1:1 DAR 16:9], q=2-31, 200 kb/s, 23.98 fps, 23.98 tbn
      Metadata:
        encoder         : Lavc61.19.100 wrapped_avframe
  Stream #0:1: Audio: pcm_s16le, 48000 Hz, stereo, s16, 1536 kb/s (default)
      Metadata:
        HANDLER_NAME    : SoundHandler
        VENDOR_ID       : [0][0][0][0]
        _STATISTICS_TAGS: BPS DURATION NUMBER_OF_FRAMES NUMBER_OF_BYTES
        BPS             : 192527
        DURATION        : 00:23:46.730000000
        NUMBER_OF_FRAMES: 66879
        NUMBER_OF_BYTES : 34335684
        _STATISTICS_WRITING_APP: mkvpropedit v66.0.0 ('Josie') 64-bit
        _STATISTICS_WRITING_DATE_UTC: 2025-05-06 18:58:29
        encoder         : Lavc61.19.100 pcm_s16le
frame=  174 fps=0.0 q=-0.0 size=N/A time=00:00:07.25 bitrate=N/A speed=14.1x    frame=  421 fps=411 q=-0.0 size=N/A time=00:00:17.55 bitrate=N/A speed=17.1x    frame=  694 fps=449 q=-0.0 size=N/A time=00:00:28.94 bitrate=N/A speed=18.7x    frame=  935 fps=455 q=-0.0 size=N/A time=00:00:38.99 bitrate=N/A speed=  19x    frame= 1195 fps=464 q=-0.0 size=N/A time=00:00:49.84 bitrate=N/A speed=19.4x    frame= 1425 fps=460 q=-0.0 size=N/A time=00:00:59.43 bitrate=N/A speed=19.2x    frame= 1693 fps=467 q=-0.0 size=N/A time=00:01:10.61 bitrate=N/A speed=19.5x    frame= 1913 fps=463 q=-0.0 size=N/A time=00:01:19.78 bitrate=N/A speed=19.3x    frame= 2182 fps=469 q=-0.0 size=N/A time=00:01:31.00 bitrate=N/A speed=19.6x    frame= 2437 fps=471 q=-0.0 size=N/A time=00:01:41.64 bitrate=N/A speed=19.6x    frame= 2607 fps=459 q=-0.0 size=N/A time=00:01:48.73 bitrate=N/A speed=19.1x    frame= 2842 fps=459 q=-0.0 size=N/A time=00:01:58.53 bitrate=N/A speed=19.1x    frame= 3105 fps=462 q=-0.0 size=N/A time=00:02:09.50 bitrate=N/A speed=19.3x    frame= 3372 fps=467 q=-0.0 size=N/A time=00:02:20.64 bitrate=N/A speed=19.5x    frame= 3628 fps=468 q=-0.0 size=N/A time=00:02:31.31 bitrate=N/A speed=19.5x    frame= 3849 fps=465 q=-0.0 size=N/A time=00:02:40.53 bitrate=N/A speed=19.4x    frame= 4039 fps=459 q=-0.0 size=N/A time=00:02:48.45 bitrate=N/A speed=19.2x    frame= 4236 fps=455 q=-0.0 size=N/A time=00:02:56.67 bitrate=N/A speed=  19x    frame= 4436 fps=452 q=-0.0 size=N/A time=00:03:05.01 bitrate=N/A speed=18.8x    frame= 4618 fps=446 q=-0.0 size=N/A time=00:03:12.60 bitrate=N/A speed=18.6x    frame= 4824 fps=444 q=-0.0 size=N/A time=00:03:21.20 bitrate=N/A speed=18.5x    frame= 5001 fps=440 q=-0.0 size=N/A time=00:03:28.58 bitrate=N/A speed=18.3x    frame= 5170 fps=435 q=-0.0 size=N/A time=00:03:35.63 bitrate=N/A speed=18.2x    frame= 5347 fps=431 q=-0.0 size=N/A time=00:03:43.01 bitrate=N/A speed=  18x    frame= 5492 fps=425 q=-0.0 size=N/A time=00:03:49.06 bitrate=N/A speed=17.7x    frame= 5647 fps=420 q=-0.0 size=N/A time=00:03:55.52 bitrate=N/A speed=17.5x    frame= 5846 fps=419 q=-0.0 size=N/A time=00:04:03.82 bitrate=N/A speed=17.5x    frame= 6100 fps=422 q=-0.0 size=N/A time=00:04:14.42 bitrate=N/A speed=17.6x    frame= 6360 fps=424 q=-0.0 size=N/A time=00:04:25.26 bitrate=N/A speed=17.7x    frame= 6598 fps=426 q=-0.0 size=N/A time=00:04:35.19 bitrate=N/A speed=17.8x    frame= 6871 fps=429 q=-0.0 size=N/A time=00:04:46.57 bitrate=N/A speed=17.9x    frame= 7127 fps=431 q=-0.0 size=N/A time=00:04:57.25 bitrate=N/A speed=  18x    frame= 7406 fps=434 q=-0.0 size=N/A time=00:05:08.89 bitrate=N/A speed=18.1x    frame= 7662 fps=436 q=-0.0 size=N/A time=00:05:19.56 bitrate=N/A speed=18.2x    frame= 7924 fps=438 q=-0.0 size=N/A time=00:05:30.49 bitrate=N/A speed=18.3x    frame= 8194 fps=441 q=-0.0 size=N/A time=00:05:41.75 bitrate=N/A speed=18.4x    frame= 8467 fps=443 q=-0.0 size=N/A time=00:05:53.14 bitrate=N/A speed=18.5x    frame= 8728 fps=444 q=-0.0 size=N/A time=00:06:04.03 bitrate=N/A speed=18.5x    frame= 8988 fps=446 q=-0.0 size=N/A time=00:06:14.87 bitrate=N/A speed=18.6x    frame= 9252 fps=447 q=-0.0 size=N/A time=00:06:25.88 bitrate=N/A speed=18.7x    frame= 9493 fps=448 q=-0.0 size=N/A time=00:06:35.93 bitrate=N/A speed=18.7x    frame= 9738 fps=449 q=-0.0 size=N/A time=00:06:46.15 bitrate=N/A speed=18.7x    frame= 9988 fps=450 q=-0.0 size=N/A time=00:06:56.58 bitrate=N/A speed=18.8x    frame=10249 fps=451 q=-0.0 size=N/A time=00:07:07.46 bitrate=N/A speed=18.8x    frame=10501 fps=452 q=-0.0 size=N/A time=00:07:17.97 bitrate=N/A speed=18.8x    frame=10734 fps=452 q=-0.0 size=N/A time=00:07:27.69 bitrate=N/A speed=18.8x    frame=10990 fps=453 q=-0.0 size=N/A time=00:07:38.37 bitrate=N/A speed=18.9x    frame=11237 fps=453 q=-0.0 size=N/A time=00:07:48.67 bitrate=N/A speed=18.9x    frame=11482 fps=454 q=-0.0 size=N/A time=00:07:58.89 bitrate=N/A speed=18.9x    frame=11743 fps=455 q=-0.0 size=N/A time=00:08:09.78 bitrate=N/A speed=  19x    frame=12001 fps=455 q=-0.0 size=N/A time=00:08:20.54 bitrate=N/A speed=  19x    frame=12268 fps=456 q=-0.0 size=N/A time=00:08:31.67 bitrate=N/A speed=  19x    frame=12528 fps=457 q=-0.0 size=N/A time=00:08:42.52 bitrate=N/A speed=19.1x    frame=12779 fps=458 q=-0.0 size=N/A time=00:08:52.99 bitrate=N/A speed=19.1x    frame=13019 fps=458 q=-0.0 size=N/A time=00:09:03.00 bitrate=N/A speed=19.1x    frame=13249 fps=458 q=-0.0 size=N/A time=00:09:12.59 bitrate=N/A speed=19.1x    frame=13505 fps=459 q=-0.0 size=N/A time=00:09:23.27 bitrate=N/A speed=19.1x    frame=13762 fps=459 q=-0.0 size=N/A time=00:09:33.99 bitrate=N/A speed=19.2x    frame=14030 fps=460 q=-0.0 size=N/A time=00:09:45.16 bitrate=N/A speed=19.2x    frame=14290 fps=461 q=-0.0 size=N/A time=00:09:56.01 bitrate=N/A speed=19.2x    frame=14483 fps=460 q=-0.0 size=N/A time=00:10:04.06 bitrate=N/A speed=19.2x    frame=14731 fps=460 q=-0.0 size=N/A time=00:10:14.40 bitrate=N/A speed=19.2x    frame=14968 fps=460 q=-0.0 size=N/A time=00:10:24.29 bitrate=N/A speed=19.2x    frame=15202 fps=460 q=-0.0 size=N/A time=00:10:34.05 bitrate=N/A speed=19.2x    frame=15439 fps=460 q=-0.0 size=N/A time=00:10:43.93 bitrate=N/A speed=19.2x    frame=15685 fps=460 q=-0.0 size=N/A time=00:10:54.19 bitrate=N/A speed=19.2x    frame=15953 fps=461 q=-0.0 size=N/A time=00:11:05.37 bitrate=N/A speed=19.2x    frame=16200 fps=461 q=-0.0 size=N/A time=00:11:15.67 bitrate=N/A speed=19.2x    frame=16480 fps=462 q=-0.0 size=N/A time=00:11:27.35 bitrate=N/A speed=19.3x    frame=16725 fps=463 q=-0.0 size=N/A time=00:11:37.57 bitrate=N/A speed=19.3x    frame=16949 fps=462 q=-0.0 size=N/A time=00:11:46.91 bitrate=N/A speed=19.3x    frame=17119 fps=460 q=-0.0 size=N/A time=00:11:54.00 bitrate=N/A speed=19.2x    frame=17373 fps=461 q=-0.0 size=N/A time=00:12:04.59 bitrate=N/A speed=19.2x    frame=17623 fps=461 q=-0.0 size=N/A time=00:12:15.02 bitrate=N/A speed=19.2x    frame=17856 fps=461 q=-0.0 size=N/A time=00:12:24.74 bitrate=N/A speed=19.2x    frame=18071 fps=460 q=-0.0 size=N/A time=00:12:33.71 bitrate=N/A speed=19.2x    frame=18299 fps=460 q=-0.0 size=N/A time=00:12:43.22 bitrate=N/A speed=19.2x    frame=18560 fps=461 q=-0.0 size=N/A time=00:12:54.10 bitrate=N/A speed=19.2x    frame=18784 fps=461 q=-0.0 size=N/A time=00:13:03.44 bitrate=N/A speed=19.2x    frame=18990 fps=460 q=-0.0 size=N/A time=00:13:12.04 bitrate=N/A speed=19.2x    frame=19210 fps=459 q=-0.0 size=N/A time=00:13:21.21 bitrate=N/A speed=19.2x    frame=19471 fps=460 q=-0.0 size=N/A time=00:13:32.10 bitrate=N/A speed=19.2x    frame=19717 fps=460 q=-0.0 size=N/A time=00:13:42.36 bitrate=N/A speed=19.2x    frame=19970 fps=460 q=-0.0 size=N/A time=00:13:52.91 bitrate=N/A speed=19.2x    frame=20225 fps=461 q=-0.0 size=N/A time=00:14:03.55 bitrate=N/A speed=19.2x    frame=20489 fps=461 q=-0.0 size=N/A time=00:14:14.56 bitrate=N/A speed=19.2x    frame=20655 fps=460 q=-0.0 size=N/A time=00:14:21.48 bitrate=N/A speed=19.2x    frame=20868 fps=459 q=-0.0 size=N/A time=00:14:30.36 bitrate=N/A speed=19.2x    frame=21080 fps=459 q=-0.0 size=N/A time=00:14:39.21 bitrate=N/A speed=19.1x    frame=21342 fps=459 q=-0.0 size=N/A time=00:14:50.13 bitrate=N/A speed=19.2x    frame=21591 fps=460 q=-0.0 size=N/A time=00:15:00.52 bitrate=N/A speed=19.2x    frame=21854 fps=460 q=-0.0 size=N/A time=00:15:11.49 bitrate=N/A speed=19.2x    frame=22095 fps=460 q=-0.0 size=N/A time=00:15:21.54 bitrate=N/A speed=19.2x    frame=22342 fps=460 q=-0.0 size=N/A time=00:15:31.84 bitrate=N/A speed=19.2x    frame=22569 fps=460 q=-0.0 size=N/A time=00:15:41.31 bitrate=N/A speed=19.2x    frame=22828 fps=461 q=-0.0 size=N/A time=00:15:52.11 bitrate=N/A speed=19.2x    frame=23080 fps=461 q=-0.0 size=N/A time=00:16:02.62 bitrate=N/A speed=19.2x    frame=23322 fps=461 q=-0.0 size=N/A time=00:16:12.72 bitrate=N/A speed=19.2x    frame=23585 fps=461 q=-0.0 size=N/A time=00:16:23.69 bitrate=N/A speed=19.2x    frame=23829 fps=462 q=-0.0 size=N/A time=00:16:33.86 bitrate=N/A speed=19.3x    frame=24092 fps=462 q=-0.0 size=N/A time=00:16:44.83 bitrate=N/A speed=19.3x    frame=24362 fps=463 q=-0.0 size=N/A time=00:16:56.09 bitrate=N/A speed=19.3x    frame=24595 fps=463 q=-0.0 size=N/A time=00:17:05.81 bitrate=N/A speed=19.3x    frame=24866 fps=463 q=-0.0 size=N/A time=00:17:17.11 bitrate=N/A speed=19.3x    frame=25103 fps=463 q=-0.0 size=N/A time=00:17:27.00 bitrate=N/A speed=19.3x    frame=25368 fps=464 q=-0.0 size=N/A time=00:17:38.05 bitrate=N/A speed=19.3x    frame=25636 fps=464 q=-0.0 size=N/A time=00:17:49.23 bitrate=N/A speed=19.4x    frame=25908 fps=465 q=-0.0 size=N/A time=00:18:00.57 bitrate=N/A speed=19.4x    frame=26166 fps=465 q=-0.0 size=N/A time=00:18:11.34 bitrate=N/A speed=19.4x    frame=26386 fps=465 q=-0.0 size=N/A time=00:18:20.51 bitrate=N/A speed=19.4x    frame=26606 fps=464 q=-0.0 size=N/A time=00:18:29.69 bitrate=N/A speed=19.4x    frame=26835 fps=464 q=-0.0 size=N/A time=00:18:39.24 bitrate=N/A speed=19.4x    frame=27094 fps=464 q=-0.0 size=N/A time=00:18:50.04 bitrate=N/A speed=19.4x    frame=27355 fps=465 q=-0.0 size=N/A time=00:19:00.93 bitrate=N/A speed=19.4x    frame=27621 fps=465 q=-0.0 size=N/A time=00:19:12.02 bitrate=N/A speed=19.4x    frame=27904 fps=466 q=-0.0 size=N/A time=00:19:23.82 bitrate=N/A speed=19.4x    frame=28159 fps=466 q=-0.0 size=N/A time=00:19:34.46 bitrate=N/A speed=19.4x    frame=28402 fps=466 q=-0.0 size=N/A time=00:19:44.60 bitrate=N/A speed=19.4x    frame=28629 fps=466 q=-0.0 size=N/A time=00:19:54.06 bitrate=N/A speed=19.4x    frame=28855 fps=466 q=-0.0 size=N/A time=00:20:03.49 bitrate=N/A speed=19.4x    frame=29103 fps=466 q=-0.0 size=N/A time=00:20:13.83 bitrate=N/A speed=19.4x    frame=29299 fps=465 q=-0.0 size=N/A time=00:20:22.01 bitrate=N/A speed=19.4x    frame=29507 fps=465 q=-0.0 size=N/A time=00:20:30.68 bitrate=N/A speed=19.4x    frame=29747 fps=465 q=-0.0 size=N/A time=00:20:40.69 bitrate=N/A speed=19.4x    frame=30006 fps=465 q=-0.0 size=N/A time=00:20:51.50 bitrate=N/A speed=19.4x    frame=30226 fps=465 q=-0.0 size=N/A time=00:21:00.67 bitrate=N/A speed=19.4x    frame=30467 fps=465 q=-0.0 size=N/A time=00:21:10.72 bitrate=N/A speed=19.4x    frame=30706 fps=465 q=-0.0 size=N/A time=00:21:20.69 bitrate=N/A speed=19.4x    frame=30964 fps=465 q=-0.0 size=N/A time=00:21:31.45 bitrate=N/A speed=19.4x    frame=31174 fps=464 q=-0.0 size=N/A time=00:21:40.21 bitrate=N/A speed=19.4x    frame=31439 fps=465 q=-0.0 size=N/A time=00:21:51.26 bitrate=N/A speed=19.4x    frame=31696 fps=465 q=-0.0 size=N/A time=00:22:01.98 bitrate=N/A speed=19.4x    frame=31907 fps=465 q=-0.0 size=N/A time=00:22:10.78 bitrate=N/A speed=19.4x    frame=32132 fps=464 q=-0.0 size=N/A time=00:22:20.17 bitrate=N/A speed=19.4x    frame=32332 fps=464 q=-0.0 size=N/A time=00:22:28.51 bitrate=N/A speed=19.3x    frame=32542 fps=463 q=-0.0 size=N/A time=00:22:37.27 bitrate=N/A speed=19.3x    frame=32740 fps=463 q=-0.0 size=N/A time=00:22:45.53 bitrate=N/A speed=19.3x    frame=32946 fps=462 q=-0.0 size=N/A time=00:22:54.12 bitrate=N/A speed=19.3x    frame=33142 fps=462 q=-0.0 size=N/A time=00:23:02.29 bitrate=N/A speed=19.3x    frame=33343 fps=461 q=-0.0 size=N/A time=00:23:10.68 bitrate=N/A speed=19.2x    frame=33541 fps=461 q=-0.0 size=N/A time=00:23:18.93 bitrate=N/A speed=19.2x    frame=33747 fps=460 q=-0.0 size=N/A time=00:23:27.53 bitrate=N/A speed=19.2x    frame=33942 fps=460 q=-0.0 size=N/A time=00:23:35.66 bitrate=N/A speed=19.2x    frame=34150 fps=459 q=-0.0 size=N/A time=00:23:44.33 bitrate=N/A speed=19.2x    [Parsed_ssim_10 @ 00000131b9cd82c0] SSIM Y:0.994548 (22.634832) U:0.991974 (20.955107) V:0.991904 (20.917222) All:0.993679 (21.991914)
[out#0/null @ 00000131b7374e00] video:14697KiB audio:267516KiB subtitle:0KiB other streams:0KiB global headers:0KiB muxing overhead: unknown
frame=34203 fps=459 q=-0.0 Lsize=N/A time=00:23:46.55 bitrate=N/A speed=19.2x    
